<svg xmlns="http://www.w3.org/2000/svg" viewBox="0 0 192 192">
  <rect width="192" height="192" rx="40" fill="#1a2340"/>
  <rect x="8" y="8" width="176" height="176" rx="34" fill="none" stroke="#c9993a" stroke-width="4"/>
  <!-- Book base -->
  <rect x="44" y="100" width="104" height="60" rx="8" fill="#c9993a"/>
  <!-- Book pages -->
  <rect x="52" y="92" width="88" height="56" rx="6" fill="#e8b84b"/>
  <rect x="60" y="84" width="72" height="52" rx="5" fill="#f5d78e"/>
  <!-- Spine line -->
  <line x1="96" y1="84" x2="96" y2="136" stroke="#c9993a" stroke-width="3"/>
  <!-- Lines on pages -->
  <line x1="68" y1="100" x2="92" y2="100" stroke="#c9993a" stroke-width="2.5" stroke-linecap="round"/>
  <line x1="68" y1="110" x2="92" y2="110" stroke="#c9993a" stroke-width="2.5" stroke-linecap="round"/>
  <line x1="68" y1="120" x2="92" y2="120" stroke="#c9993a" stroke-width="2.5" stroke-linecap="round"/>
  <line x1="100" y1="100" x2="124" y2="100" stroke="#c9993a" stroke-width="2.5" stroke-linecap="round"/>
  <line x1="100" y1="110" x2="124" y2="110" stroke="#c9993a" stroke-width="2.5" stroke-linecap="round"/>
  <line x1="100" y1="120" x2="124" y2="120" stroke="#c9993a" stroke-width="2.5" stroke-linecap="round"/>
  <!-- Star / torch above -->
  <polygon points="96,32 101,48 118,48 104,58 109,74 96,64 83,74 88,58 74,48 91,48" fill="#c9993a"/>
</svg>
