<svg xmlns="http://www.w3.org/2000/svg" viewBox="0 0 512 512">
  <rect width="512" height="512" rx="100" fill="#1a2340"/>
  <rect x="16" y="16" width="480" height="480" rx="86" fill="none" stroke="#c9993a" stroke-width="10"/>
  <!-- Book base -->
  <rect x="110" y="270" width="292" height="162" rx="20" fill="#c9993a"/>
  <!-- Book pages -->
  <rect x="130" y="248" width="252" height="152" rx="16" fill="#e8b84b"/>
  <rect x="152" y="224" width="208" height="144" rx="14" fill="#f5d78e"/>
  <!-- Spine line -->
  <line x1="256" y1="224" x2="256" y2="368" stroke="#c9993a" stroke-width="8"/>
  <!-- Lines left page -->
  <line x1="172" y1="268" x2="242" y2="268" stroke="#c9993a" stroke-width="7" stroke-linecap="round"/>
  <line x1="172" y1="294" x2="242" y2="294" stroke="#c9993a" stroke-width="7" stroke-linecap="round"/>
  <line x1="172" y1="320" x2="242" y2="320" stroke="#c9993a" stroke-width="7" stroke-linecap="round"/>
  <!-- Lines right page -->
  <line x1="270" y1="268" x2="340" y2="268" stroke="#c9993a" stroke-width="7" stroke-linecap="round"/>
  <line x1="270" y1="294" x2="340" y2="294" stroke="#c9993a" stroke-width="7" stroke-linecap="round"/>
  <line x1="270" y1="320" x2="340" y2="320" stroke="#c9993a" stroke-width="7" stroke-linecap="round"/>
  <!-- Star above -->
  <polygon points="256,72 270,118 318,118 280,146 294,192 256,164 218,192 232,146 194,118 242,118" fill="#c9993a"/>
</svg>
